<svg xmlns="http://www.w3.org/2000/svg" xmlns:xlink="http://www.w3.org/1999/xlink" width="500" zoomAndPan="magnify" viewBox="0 0 375 374.999991" height="500" preserveAspectRatio="xMidYMid meet" version="1.0"><defs><g/><clipPath id="6aac594ba4"><path d="M 171 154 L 276 154 L 276 232 L 171 232 Z M 171 154 " clip-rule="nonzero"/></clipPath><clipPath id="a4e9cf18d7"><path d="M 167.074219 165.648438 L 267.660156 141.269531 L 285.152344 213.429688 L 184.5625 237.808594 Z M 167.074219 165.648438 " clip-rule="nonzero"/></clipPath><clipPath id="088bc166c7"><path d="M 167.074219 165.648438 L 267.660156 141.269531 L 285.152344 213.429688 L 184.5625 237.808594 Z M 167.074219 165.648438 " clip-rule="nonzero"/></clipPath><clipPath id="082b8ff134"><path d="M 77.71875 179.046875 L 96.46875 179.046875 L 96.46875 197.796875 L 77.71875 197.796875 Z M 77.71875 179.046875 " clip-rule="nonzero"/></clipPath><clipPath id="0f87280ce5"><path d="M 201.570312 167.824219 L 208.320312 167.824219 L 208.320312 174.574219 L 201.570312 174.574219 Z M 201.570312 167.824219 " clip-rule="nonzero"/></clipPath></defs><g clip-path="url(#6aac594ba4)"><g clip-path="url(#a4e9cf18d7)"><g clip-path="url(#088bc166c7)"><path fill="#5dd8fd" d="M 273.699219 175.390625 C 274.074219 176.816406 274.863281 177.667969 275.511719 178.144531 C 274.535156 179.46875 273.550781 180.785156 272.5625 182.097656 C 271.488281 181.289062 269.738281 179.570312 268.972656 176.675781 C 267.15625 179.101562 265.324219 181.511719 263.464844 183.90625 C 261.34375 186.640625 259.191406 189.355469 257.007812 192.042969 C 254.824219 194.730469 252.605469 197.394531 250.347656 200.023438 C 248.085938 202.65625 245.785156 205.257812 243.429688 207.8125 C 241.070312 210.371094 238.65625 212.882812 236.15625 215.328125 C 233.65625 217.769531 231.074219 220.148438 228.335938 222.398438 C 225.59375 224.636719 222.71875 226.773438 219.449219 228.53125 C 217.804688 229.398438 216.054688 230.171875 214.078125 230.652344 C 213.085938 230.882812 212.035156 231.039062 210.917969 231.023438 C 210.359375 231.015625 209.785156 230.957031 209.210938 230.855469 C 208.636719 230.742188 208.0625 230.570312 207.5 230.347656 C 206.945312 230.109375 206.410156 229.820312 205.914062 229.480469 C 205.464844 229.136719 205.007812 228.816406 204.609375 228.398438 C 204.183594 228.015625 203.832031 227.554688 203.476562 227.105469 C 203.320312 226.867188 203.164062 226.625 203.007812 226.382812 C 202.929688 226.265625 202.863281 226.140625 202.800781 226.011719 L 202.609375 225.632812 C 202.121094 224.621094 201.789062 223.558594 201.628906 222.527344 L 201.558594 222.136719 L 201.515625 221.753906 C 201.488281 221.5 201.457031 221.242188 201.441406 220.988281 C 201.425781 220.488281 201.390625 219.976562 201.414062 219.492188 C 201.457031 217.523438 201.761719 215.660156 202.179688 213.875 C 202.597656 212.085938 203.128906 210.363281 203.710938 208.675781 C 204.882812 205.304688 206.261719 202.078125 207.699219 198.90625 C 209.136719 195.734375 210.636719 192.617188 212.121094 189.511719 C 213.609375 186.410156 215.082031 183.320312 216.453125 180.21875 C 217.816406 177.117188 219.101562 173.992188 220.023438 170.867188 C 220.484375 169.308594 220.84375 167.75 221.019531 166.25 L 221.0625 165.695312 L 221.085938 165.417969 L 221.09375 165.148438 C 221.09375 164.96875 221.105469 164.789062 221.105469 164.613281 L 221.082031 164.09375 C 221.03125 163.421875 220.917969 162.792969 220.726562 162.261719 C 220.523438 161.738281 220.253906 161.3125 219.902344 160.949219 C 219.8125 160.859375 219.734375 160.757812 219.621094 160.6875 L 219.464844 160.5625 C 219.410156 160.523438 219.367188 160.476562 219.296875 160.441406 C 219.167969 160.359375 219.039062 160.28125 218.914062 160.195312 L 218.507812 159.992188 C 217.957031 159.738281 217.359375 159.5625 216.722656 159.464844 C 216.085938 159.363281 215.398438 159.367188 214.699219 159.414062 C 213.289062 159.523438 211.804688 159.921875 210.335938 160.449219 C 208.867188 160.996094 207.410156 161.6875 205.976562 162.464844 C 203.113281 164.035156 200.355469 165.933594 197.6875 167.964844 C 195.023438 170.003906 192.441406 172.191406 189.929688 174.46875 C 187.417969 176.746094 184.972656 179.105469 182.589844 181.535156 C 181.398438 182.746094 180.222656 183.976562 179.0625 185.21875 C 178.484375 185.839844 177.90625 186.464844 177.339844 187.09375 C 176.773438 187.71875 176.195312 188.363281 175.664062 188.976562 L 171.953125 185.785156 C 172.550781 185.097656 173.121094 184.460938 173.710938 183.808594 C 174.296875 183.160156 174.890625 182.519531 175.484375 181.882812 C 176.671875 180.605469 177.878906 179.347656 179.101562 178.105469 C 181.542969 175.617188 184.054688 173.191406 186.644531 170.84375 C 189.238281 168.492188 191.914062 166.222656 194.71875 164.078125 C 197.527344 161.9375 200.457031 159.914062 203.636719 158.171875 C 205.230469 157.304688 206.886719 156.511719 208.648438 155.859375 C 210.414062 155.222656 212.28125 154.699219 214.3125 154.539062 C 215.324219 154.464844 216.371094 154.460938 217.4375 154.625 C 218.5 154.785156 219.574219 155.089844 220.585938 155.5625 C 220.835938 155.6875 221.085938 155.8125 221.332031 155.945312 L 222.039062 156.386719 C 222.15625 156.457031 222.277344 156.554688 222.394531 156.644531 L 222.746094 156.921875 C 222.984375 157.097656 223.195312 157.320312 223.40625 157.535156 C 224.257812 158.402344 224.90625 159.472656 225.3125 160.558594 C 225.710938 161.648438 225.886719 162.734375 225.960938 163.773438 L 225.996094 164.550781 C 225.996094 164.804688 225.988281 165.050781 225.984375 165.304688 L 225.972656 165.679688 L 225.945312 166.046875 L 225.882812 166.78125 C 225.660156 168.703125 225.230469 170.507812 224.71875 172.25 C 223.683594 175.730469 222.335938 178.992188 220.929688 182.191406 C 219.519531 185.390625 218.023438 188.515625 216.535156 191.625 C 215.046875 194.734375 213.558594 197.824219 212.15625 200.925781 C 210.75 204.023438 209.421875 207.136719 208.332031 210.277344 C 207.792969 211.84375 207.3125 213.417969 206.945312 214.984375 C 206.574219 216.546875 206.335938 218.105469 206.304688 219.582031 C 206.28125 219.953125 206.316406 220.304688 206.324219 220.667969 C 206.335938 220.84375 206.359375 221.011719 206.375 221.183594 L 206.402344 221.445312 L 206.449219 221.691406 C 206.546875 222.359375 206.75 222.953125 207.007812 223.488281 L 207.105469 223.6875 C 207.136719 223.757812 207.167969 223.824219 207.210938 223.878906 C 207.292969 224 207.371094 224.121094 207.445312 224.242188 C 207.632812 224.460938 207.792969 224.699219 208.015625 224.886719 C 208.207031 225.101562 208.46875 225.265625 208.691406 225.457031 C 208.910156 225.601562 209.132812 225.71875 209.367188 225.824219 C 209.609375 225.917969 209.859375 225.992188 210.128906 226.046875 C 210.402344 226.09375 210.6875 226.128906 210.992188 226.132812 C 211.597656 226.140625 212.265625 226.050781 212.949219 225.890625 C 214.324219 225.5625 215.753906 224.949219 217.152344 224.207031 C 219.957031 222.707031 222.648438 220.730469 225.234375 218.613281 C 227.820312 216.488281 230.3125 214.199219 232.734375 211.828125 C 235.160156 209.457031 237.519531 207.003906 239.832031 204.496094 C 242.144531 201.988281 244.40625 199.429688 246.632812 196.835938 C 248.859375 194.242188 251.050781 191.613281 253.210938 188.957031 C 255.371094 186.300781 257.5 183.613281 259.597656 180.90625 C 261.4375 178.535156 263.257812 176.148438 265.050781 173.746094 C 262.070312 173.8125 259.945312 172.582031 258.871094 171.773438 C 259.828125 170.507812 260.777344 169.234375 261.71875 167.960938 C 262.363281 168.4375 263.40625 168.953125 264.863281 168.902344 C 266.316406 168.859375 268.210938 168.238281 270.496094 166.460938 L 274.335938 169.167969 C 273.355469 171.980469 273.320312 173.960938 273.699219 175.390625 Z M 273.699219 175.390625 " fill-opacity="1" fill-rule="nonzero"/></g></g></g><g clip-path="url(#082b8ff134)"><path fill="#5dd8fd" d="M 96.402344 185.847656 L 96.402344 190.976562 C 90.191406 192.792969 89.261719 196.015625 89.261719 197.773438 L 83.917969 197.773438 C 83.917969 196.304688 84.257812 193.648438 86.296875 191.082031 L 77.722656 191.082031 L 77.722656 185.738281 L 86.296875 185.738281 C 84.257812 183.175781 83.917969 180.515625 83.917969 179.046875 L 89.261719 179.046875 C 89.261719 180.804688 90.191406 184.03125 96.402344 185.847656 Z M 96.402344 185.847656 " fill-opacity="1" fill-rule="nonzero"/></g><g clip-path="url(#0f87280ce5)"><path fill="#ffffff" d="M 204.84375 167.824219 C 206.652344 167.824219 208.121094 169.292969 208.121094 171.101562 C 208.121094 172.910156 206.652344 174.375 204.84375 174.375 C 203.035156 174.375 201.570312 172.910156 201.570312 171.101562 C 201.570312 169.292969 203.035156 167.824219 204.84375 167.824219 Z M 204.84375 167.824219 " fill-opacity="1" fill-rule="evenodd"/></g><g fill="#ffffff" fill-opacity="1"><g transform="translate(109.280066, 196.719097)"><g><path d="M 0.515625 0 L 0.515625 -17.9375 L 19.46875 -17.9375 L 19.46875 -12.296875 L 7.171875 -12.296875 L 7.171875 -10.375 L 17.9375 -10.375 L 17.9375 -4.734375 L 7.171875 -4.734375 L 7.171875 0 Z M 0.515625 0 "/></g></g></g><g fill="#ffffff" fill-opacity="1"><g transform="translate(129.005342, 196.719097)"><g><path d="M 0.25 0 L 7.6875 -17.9375 L 17.578125 -17.9375 L 25.015625 0 L 17.6875 0 L 16.453125 -3.234375 L 8.8125 -3.234375 L 7.578125 0 Z M 10.5625 -7.84375 L 14.703125 -7.84375 L 12.640625 -13.328125 Z M 10.5625 -7.84375 "/></g></g></g><g fill="#ffffff" fill-opacity="1"><g transform="translate(154.263938, 196.719097)"><g><path d="M 11.703125 0.25 C 9.265625 0.25 7.191406 0.0703125 5.484375 -0.28125 C 3.773438 -0.632812 2.472656 -1.285156 1.578125 -2.234375 C 0.691406 -3.191406 0.25 -4.554688 0.25 -6.328125 L 6.921875 -6.328125 C 6.921875 -6.035156 7.046875 -5.78125 7.296875 -5.5625 C 7.554688 -5.34375 8.046875 -5.171875 8.765625 -5.046875 C 9.492188 -4.929688 10.5625 -4.875 11.96875 -4.875 C 13.28125 -4.875 14.257812 -4.898438 14.90625 -4.953125 C 15.5625 -5.015625 15.988281 -5.113281 16.1875 -5.25 C 16.394531 -5.382812 16.5 -5.566406 16.5 -5.796875 C 16.5 -6.046875 16.390625 -6.234375 16.171875 -6.359375 C 15.960938 -6.492188 15.515625 -6.585938 14.828125 -6.640625 C 14.148438 -6.703125 13.109375 -6.753906 11.703125 -6.796875 C 9.003906 -6.878906 6.832031 -7.109375 5.1875 -7.484375 C 3.550781 -7.859375 2.363281 -8.453125 1.625 -9.265625 C 0.882812 -10.078125 0.515625 -11.175781 0.515625 -12.5625 C 0.515625 -14.539062 1.453125 -15.972656 3.328125 -16.859375 C 5.210938 -17.742188 7.921875 -18.1875 11.453125 -18.1875 C 13.796875 -18.1875 15.773438 -17.984375 17.390625 -17.578125 C 19.015625 -17.171875 20.253906 -16.507812 21.109375 -15.59375 C 21.960938 -14.675781 22.390625 -13.453125 22.390625 -11.921875 L 15.734375 -11.921875 C 15.734375 -12.398438 15.335938 -12.707031 14.546875 -12.84375 C 13.765625 -12.988281 12.5625 -13.0625 10.9375 -13.0625 C 9.894531 -13.0625 9.101562 -13.039062 8.5625 -13 C 8.03125 -12.957031 7.664062 -12.875 7.46875 -12.75 C 7.269531 -12.632812 7.171875 -12.457031 7.171875 -12.21875 C 7.171875 -12 7.273438 -11.835938 7.484375 -11.734375 C 7.703125 -11.628906 8.132812 -11.5625 8.78125 -11.53125 C 9.4375 -11.5 10.410156 -11.457031 11.703125 -11.40625 C 13.484375 -11.332031 15.078125 -11.222656 16.484375 -11.078125 C 17.898438 -10.929688 19.101562 -10.675781 20.09375 -10.3125 C 21.082031 -9.957031 21.84375 -9.4375 22.375 -8.75 C 22.90625 -8.0625 23.171875 -7.125 23.171875 -5.9375 C 23.171875 -4.300781 22.722656 -3.035156 21.828125 -2.140625 C 20.941406 -1.242188 19.648438 -0.617188 17.953125 -0.265625 C 16.253906 0.078125 14.171875 0.25 11.703125 0.25 Z M 11.703125 0.25 "/></g></g></g><g fill="#ffffff" fill-opacity="1"><g transform="translate(177.678091, 196.719097)"><g><path d="M 11.703125 0.25 C 9.265625 0.25 7.191406 0.0703125 5.484375 -0.28125 C 3.773438 -0.632812 2.472656 -1.285156 1.578125 -2.234375 C 0.691406 -3.191406 0.25 -4.554688 0.25 -6.328125 L 6.921875 -6.328125 C 6.921875 -6.035156 7.046875 -5.78125 7.296875 -5.5625 C 7.554688 -5.34375 8.046875 -5.171875 8.765625 -5.046875 C 9.492188 -4.929688 10.5625 -4.875 11.96875 -4.875 C 13.28125 -4.875 14.257812 -4.898438 14.90625 -4.953125 C 15.5625 -5.015625 15.988281 -5.113281 16.1875 -5.25 C 16.394531 -5.382812 16.5 -5.566406 16.5 -5.796875 C 16.5 -6.046875 16.390625 -6.234375 16.171875 -6.359375 C 15.960938 -6.492188 15.515625 -6.585938 14.828125 -6.640625 C 14.148438 -6.703125 13.109375 -6.753906 11.703125 -6.796875 C 9.003906 -6.878906 6.832031 -7.109375 5.1875 -7.484375 C 3.550781 -7.859375 2.363281 -8.453125 1.625 -9.265625 C 0.882812 -10.078125 0.515625 -11.175781 0.515625 -12.5625 C 0.515625 -14.539062 1.453125 -15.972656 3.328125 -16.859375 C 5.210938 -17.742188 7.921875 -18.1875 11.453125 -18.1875 C 13.796875 -18.1875 15.773438 -17.984375 17.390625 -17.578125 C 19.015625 -17.171875 20.253906 -16.507812 21.109375 -15.59375 C 21.960938 -14.675781 22.390625 -13.453125 22.390625 -11.921875 L 15.734375 -11.921875 C 15.734375 -12.398438 15.335938 -12.707031 14.546875 -12.84375 C 13.765625 -12.988281 12.5625 -13.0625 10.9375 -13.0625 C 9.894531 -13.0625 9.101562 -13.039062 8.5625 -13 C 8.03125 -12.957031 7.664062 -12.875 7.46875 -12.75 C 7.269531 -12.632812 7.171875 -12.457031 7.171875 -12.21875 C 7.171875 -12 7.273438 -11.835938 7.484375 -11.734375 C 7.703125 -11.628906 8.132812 -11.5625 8.78125 -11.53125 C 9.4375 -11.5 10.410156 -11.457031 11.703125 -11.40625 C 13.484375 -11.332031 15.078125 -11.222656 16.484375 -11.078125 C 17.898438 -10.929688 19.101562 -10.675781 20.09375 -10.3125 C 21.082031 -9.957031 21.84375 -9.4375 22.375 -8.75 C 22.90625 -8.0625 23.171875 -7.125 23.171875 -5.9375 C 23.171875 -4.300781 22.722656 -3.035156 21.828125 -2.140625 C 20.941406 -1.242188 19.648438 -0.617188 17.953125 -0.265625 C 16.253906 0.078125 14.171875 0.25 11.703125 0.25 Z M 11.703125 0.25 "/></g></g></g><g fill="#ffffff" fill-opacity="1"><g transform="translate(201.092243, 196.719097)"><g><path d="M 0.515625 0 L 0.515625 -17.9375 L 7.171875 -17.9375 L 7.171875 0 Z M 0.515625 0 "/></g></g></g><g fill="#ffffff" fill-opacity="1"><g transform="translate(208.777419, 196.719097)"><g><path d="M 0.515625 0 L 0.515625 -17.9375 L 7.171875 -17.9375 L 7.171875 -11.78125 L 17.6875 -11.78125 L 17.6875 -17.9375 L 24.34375 -17.9375 L 24.34375 0 L 17.6875 0 L 17.6875 -6.15625 L 7.171875 -6.15625 L 7.171875 0 Z M 0.515625 0 "/></g></g></g><g fill="#5dd8fd" fill-opacity="1"><g transform="translate(109.280066, 212.020609)"><g><path d="M 0.21875 0 L 0.21875 -7.671875 L 6.25 -7.671875 C 6.832031 -7.671875 7.34375 -7.539062 7.78125 -7.28125 C 8.21875 -7.03125 8.554688 -6.6875 8.796875 -6.25 C 9.046875 -5.8125 9.171875 -5.304688 9.171875 -4.734375 C 9.171875 -4.160156 9.046875 -3.648438 8.796875 -3.203125 C 8.554688 -2.765625 8.21875 -2.421875 7.78125 -2.171875 C 7.34375 -1.921875 6.832031 -1.796875 6.25 -1.796875 L 3.0625 -1.796875 L 3.0625 0 Z M 3.0625 -4.203125 L 5.703125 -4.203125 C 5.796875 -4.203125 5.890625 -4.207031 5.984375 -4.21875 C 6.085938 -4.238281 6.171875 -4.285156 6.234375 -4.359375 C 6.296875 -4.429688 6.328125 -4.554688 6.328125 -4.734375 C 6.328125 -4.910156 6.296875 -5.035156 6.234375 -5.109375 C 6.171875 -5.179688 6.085938 -5.222656 5.984375 -5.234375 C 5.890625 -5.242188 5.796875 -5.25 5.703125 -5.25 L 3.0625 -5.25 Z M 3.0625 -4.203125 "/></g></g></g><g fill="#5dd8fd" fill-opacity="1"><g transform="translate(118.562399, 212.020609)"><g><path d="M 0.21875 0 L 0.21875 -7.671875 L 6.25 -7.671875 C 6.832031 -7.671875 7.34375 -7.539062 7.78125 -7.28125 C 8.21875 -7.03125 8.554688 -6.6875 8.796875 -6.25 C 9.046875 -5.8125 9.171875 -5.304688 9.171875 -4.734375 C 9.171875 -4.179688 9.050781 -3.679688 8.8125 -3.234375 C 8.570312 -2.796875 8.242188 -2.453125 7.828125 -2.203125 L 9.171875 0 L 5.8125 0 L 4.75 -1.796875 L 3.0625 -1.796875 L 3.0625 0 Z M 3.0625 -4.203125 L 5.703125 -4.203125 C 5.796875 -4.203125 5.890625 -4.207031 5.984375 -4.21875 C 6.085938 -4.238281 6.171875 -4.285156 6.234375 -4.359375 C 6.296875 -4.429688 6.328125 -4.554688 6.328125 -4.734375 C 6.328125 -4.910156 6.296875 -5.035156 6.234375 -5.109375 C 6.171875 -5.179688 6.085938 -5.222656 5.984375 -5.234375 C 5.890625 -5.242188 5.796875 -5.25 5.703125 -5.25 L 3.0625 -5.25 Z M 3.0625 -4.203125 "/></g></g></g><g fill="#5dd8fd" fill-opacity="1"><g transform="translate(127.844733, 212.020609)"><g><path d="M 4.921875 0.109375 C 3.242188 0.109375 2.019531 -0.210938 1.25 -0.859375 C 0.488281 -1.515625 0.109375 -2.507812 0.109375 -3.84375 C 0.109375 -5.175781 0.488281 -6.164062 1.25 -6.8125 C 2.019531 -7.457031 3.242188 -7.78125 4.921875 -7.78125 C 6.609375 -7.78125 7.832031 -7.457031 8.59375 -6.8125 C 9.363281 -6.164062 9.75 -5.175781 9.75 -3.84375 C 9.75 -2.507812 9.363281 -1.515625 8.59375 -0.859375 C 7.832031 -0.210938 6.609375 0.109375 4.921875 0.109375 Z M 4.921875 -2.296875 C 5.484375 -2.296875 5.90625 -2.367188 6.1875 -2.515625 C 6.46875 -2.660156 6.65625 -2.847656 6.75 -3.078125 C 6.851562 -3.316406 6.90625 -3.570312 6.90625 -3.84375 C 6.90625 -4.113281 6.851562 -4.363281 6.75 -4.59375 C 6.65625 -4.820312 6.46875 -5.003906 6.1875 -5.140625 C 5.90625 -5.285156 5.484375 -5.359375 4.921875 -5.359375 C 4.359375 -5.359375 3.9375 -5.285156 3.65625 -5.140625 C 3.375 -5.003906 3.1875 -4.820312 3.09375 -4.59375 C 3 -4.363281 2.953125 -4.113281 2.953125 -3.84375 C 2.953125 -3.570312 3 -3.316406 3.09375 -3.078125 C 3.1875 -2.847656 3.375 -2.660156 3.65625 -2.515625 C 3.945312 -2.367188 4.367188 -2.296875 4.921875 -2.296875 Z M 4.921875 -2.296875 "/></g></g></g><g fill="#5dd8fd" fill-opacity="1"><g transform="translate(137.696263, 212.020609)"><g><path d="M 0.21875 0 L 0.21875 -7.671875 L 5.921875 -7.671875 C 6.378906 -7.671875 6.820312 -7.59375 7.25 -7.4375 C 7.675781 -7.28125 8.0625 -7.039062 8.40625 -6.71875 C 8.75 -6.40625 9.015625 -6.007812 9.203125 -5.53125 C 9.398438 -5.050781 9.5 -4.484375 9.5 -3.828125 C 9.5 -3.179688 9.398438 -2.613281 9.203125 -2.125 C 9.015625 -1.644531 8.75 -1.25 8.40625 -0.9375 C 8.0625 -0.625 7.675781 -0.390625 7.25 -0.234375 C 6.820312 -0.078125 6.378906 0 5.921875 0 Z M 3.0625 -2.40625 L 5.03125 -2.40625 C 5.1875 -2.40625 5.359375 -2.414062 5.546875 -2.4375 C 5.734375 -2.457031 5.910156 -2.507812 6.078125 -2.59375 C 6.242188 -2.675781 6.378906 -2.8125 6.484375 -3 C 6.597656 -3.195312 6.65625 -3.472656 6.65625 -3.828125 C 6.65625 -4.191406 6.597656 -4.46875 6.484375 -4.65625 C 6.378906 -4.851562 6.242188 -4.992188 6.078125 -5.078125 C 5.910156 -5.160156 5.734375 -5.207031 5.546875 -5.21875 C 5.359375 -5.238281 5.1875 -5.25 5.03125 -5.25 L 3.0625 -5.25 Z M 3.0625 -2.40625 "/></g></g></g><g fill="#5dd8fd" fill-opacity="1"><g transform="translate(147.306979, 212.020609)"><g><path d="M 5.03125 0.109375 C 3.351562 0.109375 2.128906 -0.210938 1.359375 -0.859375 C 0.597656 -1.515625 0.21875 -2.507812 0.21875 -3.84375 L 0.21875 -7.671875 L 3.0625 -7.671875 L 3.0625 -3.84375 C 3.0625 -3.570312 3.109375 -3.316406 3.203125 -3.078125 C 3.304688 -2.847656 3.5 -2.660156 3.78125 -2.515625 C 4.0625 -2.367188 4.476562 -2.296875 5.03125 -2.296875 C 5.59375 -2.296875 6.015625 -2.367188 6.296875 -2.515625 C 6.578125 -2.660156 6.765625 -2.847656 6.859375 -3.078125 C 6.960938 -3.316406 7.015625 -3.570312 7.015625 -3.84375 L 7.015625 -7.671875 L 9.859375 -7.671875 L 9.859375 -3.84375 C 9.859375 -2.507812 9.472656 -1.515625 8.703125 -0.859375 C 7.941406 -0.210938 6.71875 0.109375 5.03125 0.109375 Z M 5.03125 0.109375 "/></g></g></g><g fill="#5dd8fd" fill-opacity="1"><g transform="translate(157.377432, 212.020609)"><g><path d="M 4.921875 0.109375 C 3.242188 0.109375 2.019531 -0.210938 1.25 -0.859375 C 0.488281 -1.515625 0.109375 -2.507812 0.109375 -3.84375 C 0.109375 -5.175781 0.488281 -6.164062 1.25 -6.8125 C 2.019531 -7.457031 3.242188 -7.78125 4.921875 -7.78125 C 6.460938 -7.78125 7.628906 -7.5 8.421875 -6.9375 C 9.222656 -6.375 9.65625 -5.488281 9.71875 -4.28125 L 6.796875 -4.28125 C 6.742188 -4.644531 6.570312 -4.914062 6.28125 -5.09375 C 5.988281 -5.269531 5.535156 -5.359375 4.921875 -5.359375 C 4.359375 -5.359375 3.9375 -5.285156 3.65625 -5.140625 C 3.375 -5.003906 3.1875 -4.820312 3.09375 -4.59375 C 3 -4.363281 2.953125 -4.113281 2.953125 -3.84375 C 2.953125 -3.570312 3 -3.316406 3.09375 -3.078125 C 3.1875 -2.847656 3.375 -2.660156 3.65625 -2.515625 C 3.945312 -2.367188 4.367188 -2.296875 4.921875 -2.296875 C 5.535156 -2.296875 5.988281 -2.390625 6.28125 -2.578125 C 6.570312 -2.765625 6.742188 -3.039062 6.796875 -3.40625 L 9.71875 -3.40625 C 9.65625 -2.195312 9.222656 -1.304688 8.421875 -0.734375 C 7.628906 -0.171875 6.460938 0.109375 4.921875 0.109375 Z M 4.921875 0.109375 "/></g></g></g><g fill="#5dd8fd" fill-opacity="1"><g transform="translate(167.196128, 212.020609)"><g><path d="M 3.390625 0 L 3.390625 -5.25 L 0.109375 -5.25 L 0.109375 -7.671875 L 9.53125 -7.671875 L 9.53125 -5.25 L 6.25 -5.25 L 6.25 0 Z M 3.390625 0 "/></g></g></g><g fill="#5dd8fd" fill-opacity="1"><g transform="translate(176.828741, 212.020609)"><g><path d="M 0.21875 0 L 0.21875 -7.671875 L 3.0625 -7.671875 L 3.0625 0 Z M 0.21875 0 "/></g></g></g><g fill="#5dd8fd" fill-opacity="1"><g transform="translate(180.112584, 212.020609)"><g><path d="M 4.921875 0.109375 C 3.242188 0.109375 2.019531 -0.210938 1.25 -0.859375 C 0.488281 -1.515625 0.109375 -2.507812 0.109375 -3.84375 C 0.109375 -5.175781 0.488281 -6.164062 1.25 -6.8125 C 2.019531 -7.457031 3.242188 -7.78125 4.921875 -7.78125 C 6.609375 -7.78125 7.832031 -7.457031 8.59375 -6.8125 C 9.363281 -6.164062 9.75 -5.175781 9.75 -3.84375 C 9.75 -2.507812 9.363281 -1.515625 8.59375 -0.859375 C 7.832031 -0.210938 6.609375 0.109375 4.921875 0.109375 Z M 4.921875 -2.296875 C 5.484375 -2.296875 5.90625 -2.367188 6.1875 -2.515625 C 6.46875 -2.660156 6.65625 -2.847656 6.75 -3.078125 C 6.851562 -3.316406 6.90625 -3.570312 6.90625 -3.84375 C 6.90625 -4.113281 6.851562 -4.363281 6.75 -4.59375 C 6.65625 -4.820312 6.46875 -5.003906 6.1875 -5.140625 C 5.90625 -5.285156 5.484375 -5.359375 4.921875 -5.359375 C 4.359375 -5.359375 3.9375 -5.285156 3.65625 -5.140625 C 3.375 -5.003906 3.1875 -4.820312 3.09375 -4.59375 C 3 -4.363281 2.953125 -4.113281 2.953125 -3.84375 C 2.953125 -3.570312 3 -3.316406 3.09375 -3.078125 C 3.1875 -2.847656 3.375 -2.660156 3.65625 -2.515625 C 3.945312 -2.367188 4.367188 -2.296875 4.921875 -2.296875 Z M 4.921875 -2.296875 "/></g></g></g><g fill="#5dd8fd" fill-opacity="1"><g transform="translate(189.964114, 212.020609)"><g><path d="M 0.21875 0 L 0.21875 -7.671875 L 3.9375 -7.671875 L 7.25 -3.140625 L 7.25 -7.671875 L 10.09375 -7.671875 L 10.09375 0 L 6.375 0 L 3.0625 -4.53125 L 3.0625 0 Z M 0.21875 0 "/></g></g></g></svg>